<?xml version="1.0" encoding="UTF-8"?>
<svg xmlns="http://www.w3.org/2000/svg" xmlns:xlink="http://www.w3.org/1999/xlink" version="1.0" width="256" height="256">
	<defs>
		<style type="text/css"><![CDATA[
		.background {
			fill: #006666;
		}
		.tornado-body, .ground {
			fill: #004444;
		}
		.tornado-accent {
			fill: none;
			stroke: #44cccc;
			stroke-width: 8;
		}
		]]></style>
		<clipPath id="tornado-mask">
			<path d="M 64,64 A 64,32 0 0,1 192,64 Q 160,128 160,224 L 96,224 Q 96,128 64,64"/>
		</clipPath>
	</defs>
	<rect x="0" y="0" width="256" height="256" class="background"/>
	<path d="M 64,64 A 64,32 0 0,1 192,64 Q 160,128 160,224 L 96,224 Q 96,128 64,64" class="tornado-body"/>
	<g clip-path="url(#tornado-mask)">
		<path d="M 64,96 a 64,32 0 0,1 128,0" class="tornado-accent"/>
		<path d="M 64,120 a 64,32 0 0,1 128,0" class="tornado-accent"/>
		<path d="M 64,144 a 64,32 0 0,1 128,0" class="tornado-accent"/>
		<path d="M 64,168 a 64,32 0 0,1 128,0" class="tornado-accent"/>
		<path d="M 64,192 a 64,32 0 0,1 128,0" class="tornado-accent"/>
		<path d="M 64,216 a 64,32 0 0,1 128,0" class="tornado-accent"/>
		<path d="M 64,240 a 64,32 0 0,1 128,0" class="tornado-accent"/>
	</g>
	<rect x="0" y="224" width="256" height="32" class="ground"/>
</svg>